<svg width="80" height="80" viewBox="0 0 80 80" fill="none" xmlns="http://www.w3.org/2000/svg">
<path d="M75.651 70.8138C73.304 73.9518 69.9763 76.3607 66.094 77.6367C65.9182 77.7148 65.722 77.7539 65.5259 77.7539C65.3365 77.7539 65.1471 77.7148 64.9713 77.6432V77.6823C64.9713 78.9583 63.8891 80 62.5566 80H57.3622C56.0365 80 54.9476 78.9583 54.9476 77.6823V41.7904C54.9476 40.5143 56.0298 39.4661 57.3622 39.4661H62.5566C63.8823 39.4661 64.9713 40.5078 64.9713 41.7904V42.0117C65.1471 41.9336 65.3365 41.8945 65.5259 41.8945C65.6747 41.8945 65.8235 41.9206 65.9587 41.9596V41.9661C68.9077 42.9102 71.5455 44.5182 73.6828 46.5951V38.5091C73.6828 28.8151 70.3077 20.5208 64.3422 14.681L61.6977 18.4766C56.3206 12.7799 48.5763 9.1862 40 9.1862C31.3696 9.1862 23.5712 12.8255 18.1941 18.5938L14.9949 14.8307C9.11059 20.6055 5.77612 28.7826 5.77612 38.5091V47.7865C8.07575 45.1302 11.1329 43.0859 14.6162 41.9727V41.9661C14.7582 41.9206 14.907 41.8945 15.049 41.8945C15.2384 41.8945 15.4346 41.9336 15.6037 42.0052V41.7839C15.6037 40.5078 16.6926 39.4596 18.0183 39.4596H23.2127C24.5384 39.4596 25.6273 40.5013 25.6273 41.7839V77.6758C25.6273 78.9518 24.5384 79.9935 23.2127 79.9935H18.0183C16.6926 79.9935 15.6037 78.9518 15.6037 77.6758V77.6367C15.4346 77.7083 15.2452 77.7474 15.049 77.7474C14.8461 77.7474 14.6567 77.7018 14.4877 77.6302C10.6053 76.3542 7.27765 73.9453 4.93067 70.8073C3.6997 69.1667 2.73926 67.3307 2.11025 65.3581H0V38.5091C0 27.9167 4.4978 18.2943 11.7484 11.3151C18.999 4.33594 29.0024 0 40 0C51.0044 0 61.0078 4.33594 68.2516 11.3086C75.5022 18.2878 80 27.9102 80 38.5026V65.3581H78.4647C77.8492 67.3112 76.8887 69.1602 75.651 70.8138Z" fill="white"/>
</svg>
