<svg width="80" height="80" viewBox="0 0 80 80" fill="none" xmlns="http://www.w3.org/2000/svg">
<path fill-rule="evenodd" clip-rule="evenodd" d="M14.7884 8.20313H75.7589C79.7451 8.20313 79.5295 9.8112 79.1831 13.9128L76.9155 42.7083C76.53 47.2982 76.8567 46.1849 71.9752 46.8815L27.1328 52.5651L29.505 59.4206C48.9593 59.4206 58.363 59.4206 77.8043 59.4206C78.4578 61.8555 79.3465 65.8203 80 68.5352H71.9752L71.204 65.7617C54.9975 65.7617 48.8221 65.7617 32.6091 65.7617C23.7543 65.612 24.643 68.0013 22.5192 60.3776L7.306 5.27995H0V0H12.8149C13.4096 2.22005 14.233 5.95703 14.7884 8.20313ZM35.0858 67.6562C38.5035 67.6562 41.2808 70.4232 41.2808 73.8281C41.2808 77.2396 38.51 80 35.0858 80C31.6615 80 28.8907 77.2396 28.8907 73.8281C28.8907 70.4232 31.6615 67.6562 35.0858 67.6562ZM60.6371 67.6562C64.0549 67.6562 66.8322 70.4232 66.8322 73.8281C66.8322 77.2396 64.0549 80 60.6371 80C57.2129 80 54.4421 77.2396 54.4421 73.8281C54.4421 70.4232 57.2129 67.6562 60.6371 67.6562ZM20.1274 28.0404H29.9951L26.414 13.125C22.8851 13.125 19.4086 13.1185 16.0039 13.1185L17.2063 17.5846L17.2455 17.5781L20.1274 28.0404ZM31.57 13.1315L35.1511 28.0404H44.6528L41.0587 13.1445L31.57 13.1315ZM46.2277 13.151L49.8219 28.0404H58.9119L55.3308 13.1641L46.2277 13.151ZM60.4999 13.1706L64.081 28.0469H73.1776L74.184 16.0938C74.465 12.7604 75.0531 13.1836 71.8118 13.1836C68.1131 13.1771 64.3294 13.1706 60.4999 13.1706ZM72.8574 31.8294H64.9894L67.5837 42.6107L68.2241 42.526C72.1908 41.9596 71.9294 42.8646 72.2431 39.1341L72.8574 31.8294ZM62.5845 43.2943L59.8268 31.8294H50.7433L53.7951 44.4857L62.5845 43.2943ZM48.7894 45.1628L45.5677 31.8229H36.0595L39.5687 46.4128L48.7894 45.1628ZM34.5695 47.0964L30.9034 31.8294H21.173L25.7213 48.3008L34.5695 47.0964Z" fill="white"/>
</svg>
